<?xml version="1.0" encoding="UTF-8" standalone="no"?>
<!-- Created with Inkscape (http://www.inkscape.org/) -->

<svg
   width="447.16385mm"
   height="367.10809mm"
   viewBox="0 0 447.16385 367.10809"
   version="1.1"
   id="svg1"
   xml:space="preserve"
   xmlns="http://www.w3.org/2000/svg"
   xmlns:svg="http://www.w3.org/2000/svg"><defs
     id="defs1" /><g
     id="layer1"
     transform="translate(13.581938,2323.6743)"><rect
       style="opacity:0;fill:#0027ff;stroke-width:0.870354"
       id="rect3"
       width="570.05505"
       height="570.05505"
       x="-75.027542"
       y="-2425.1477" /><path
       id="path618824"
       style="opacity:1;fill:#ff0012;fill-opacity:1;stroke-width:1.11095"
       d="m 12.185728,-2355.3407 c -0.1026,-0.3594 -0.1076,-0.6059 -0.029,-1.3983 0.048,-0.4976 0.2686,-1.9781 0.4901,-3.2899 l 0.402,-2.3854 -0.3114,-0.4524 c -0.1713,-0.2489 -0.5516,-0.7854 -0.8456,-1.1925 -0.2938,-0.4074 -0.7313,-1.0684 -0.9724,-1.4695 -0.2408,-0.401 -0.9899,-1.4699 -1.6644001,-2.3754 -1.2175,-1.6343 -1.5477,-2.1494 -1.5477,-2.414 0,-0.3954 1.5438,-3.1486 2.5004001,-4.4587 0.5356,-0.7339 0.8435,-1.0638 1.1352,-1.2161 0.3065,-0.1604 0.5088,-0.1457 0.9119,0.065 0.1905,0.1 0.3806,0.1718 0.4218,0.1601 0.1277,-0.038 2.9199,1.1257 3.7902,1.5768 l 0.8225,0.4263 -0.011,0.536 c -0.017,0.7299 -0.1822,1.0987 -0.5908,1.3072 -0.4973,0.2536 -1.4792,0.5009 -1.9894,0.5009 -0.4534,0 -0.4598,0 -0.9887,-0.5408 -0.2926,-0.2976 -0.6373,-0.6169 -0.7657,-0.71 l -0.2333,-0.169 0.053,0.4425 c 0.047,0.3876 0.026,0.4988 -0.1798,0.895 -0.164,0.3149 -0.3157,0.488 -0.5,0.57 -0.3242,0.1441 -0.3366,0.2348 -0.037,0.2957 0.1242,0.025 0.411,0.1226 0.6374,0.2154 0.2264,0.093 0.6518,0.2578 0.9459,0.3657 0.3594,0.1322 0.621,0.2943 0.7978,0.4941 0.706,0.7973 3.6437,5.203 3.6437,5.4644 0,0.2041 -0.6025,0.7101 -1.1708,0.983 l -0.4713,0.2262 0.3068,0.051 c 0.1687,0.029 0.4469,0.051 0.618,0.052 0.178,0 0.3234,0.045 0.3394,0.1038 0.1645,0.5969 0.3687,2.3524 0.5113,4.4004 0.1056,1.5035 0.1875,0.7157 0.1711,-1.6353 -0.011,-2.0575 0,-2.4053 0.1064,-2.4613 0.068,-0.038 0.265,-0.1464 0.4377,-0.2464 l 0.3141,-0.181 -0.3141,-0.3023 c -0.2418,-0.2326 -0.3977,-0.5198 -0.6757,-1.244 -0.7724,-2.0123 -0.7795,-2.0252 -1.9045,-3.4075 -0.5858,-0.7201 -1.0654,-1.3572 -1.0654,-1.4161 0,-0.1553 0.242,-0.1327 1.4502,0.1345 2.1058,0.4659 2.123,0.4738 3.1725,1.4488 0.6789,0.6308 0.9721,0.8528 1.0883,0.8241 0.1016,-0.025 0.491,0.1679 1.0816,0.5364 l 0.9227,0.5759 -0.1172,0.5102 c -0.2271,0.989 -0.3569,1.3422 -0.5645,1.5372 -0.1154,0.1083 -0.3263,0.3842 -0.4692,0.6131 -0.1429,0.2288 -0.3683,0.5331 -0.5013,0.6763 -0.1518,0.1633 -0.2706,0.4081 -0.3193,0.6579 -0.043,0.2189 -0.1095,1.6377 -0.1493,3.1531 -0.037,1.5155 -0.089,2.8295 -0.1125,2.92 -0.021,0.091 -0.044,0.1915 -0.047,0.2246 -0.01,0.096 -8.4948,0.118 -8.5222,0.021 z m 13.4715,-9.4643 c -0.1922,-0.115 -0.3498,-0.2272 -0.3498,-0.2485 0,-0.021 0.1266,-0.15 0.281,-0.2856 0.3221,-0.2829 0.7886,-0.9745 0.7886,-1.1695 0,-0.2335 0.136,-0.2264 0.4831,0.025 0.4633,0.3354 0.4571,0.585 -0.033,1.2704 -0.5013,0.7022 -0.6144,0.7417 -1.1708,0.4081 z m -2.7156,-1.18 -1.5847,-0.9742 1.2452,-1.2047 1.2451,-1.2048 0.2986,0.2251 c 0.1643,0.1239 0.7187,0.5741 1.2327,1.0005 0.9136,0.7581 0.9331,0.7814 0.8884,1.0585 -0.072,0.4337 -0.3576,0.9635 -0.7707,1.4231 -0.3389,0.377 -0.7316,0.6607 -0.9039,0.6534 -0.037,0 -0.7791,-0.4412 -1.6506,-0.977 z m -2.8433,-1.6441 c -0.3014,-0.3124 -0.5481,-0.6108 -0.5481,-0.6634 0,-0.053 0.043,-0.1752 0.094,-0.2725 0.1084,-0.2029 3.2468,-3.9785 3.3701,-4.0547 0.1975,-0.1217 0.544,0.1028 1.1877,0.7703 0.4609,0.4779 0.6916,0.7804 0.6926,0.9088 0,0.2179 -0.1774,0.4081 -2.3254,2.4729 -1.1824,1.1366 -1.5069,1.4062 -1.6931,1.4062 -0.1766,0 -0.3568,-0.1315 -0.7782,-0.5678 z m -2.1913,-1.5541 c -0.8329,-0.4136 -0.9528,-0.4999 -1.018,-0.7308 -0.042,-0.1441 -0.05,-0.3477 -0.02,-0.4524 0.029,-0.105 0.4863,-0.81 1.0179,-1.5671 0.5316,-0.7571 1.2257,-1.7514 1.5424,-2.2095 0.6514,-0.9427 0.7839,-1.0612 1.1862,-1.0612 0.254,0 0.3854,0.1 1.1743,0.8884 0.9629,0.9626 1.0421,1.1329 0.7438,1.5972 -0.358,0.5581 -2.9332,3.7397 -3.1303,3.8678 -0.1213,0.079 -0.2949,0.142 -0.3851,0.1402 -0.09,0 -0.5893,-0.2146 -1.1083,-0.4725 z m -2.8295,-0.841 c -0.5325,-0.2762 -1.1468,-0.6759 -1.4288,-0.9296 -0.24,-0.2163 -0.2431,-0.5196 -0.01,-0.5952 0.1431,-0.045 0.2289,0 0.4191,0.2415 0.1669,0.2083 0.3053,0.2981 0.4576,0.2977 0.1198,0 0.7547,-0.1452 1.4107,-0.3221 0.6561,-0.1767 1.2086,-0.3056 1.2283,-0.2859 0.042,0.042 -0.043,0.1486 -0.8581,1.135 -0.3165,0.3829 -0.6138,0.6985 -0.6603,0.7017 -0.046,0 -0.3003,-0.1063 -0.5634,-0.2427 z m 2.3625,-2.264 c -0.026,-0.07 -0.026,-0.283 0.01,-0.4729 0.1533,-0.9469 0.1515,-1.0811 -0.011,-1.2315 -0.088,-0.08 -0.4863,-0.2838 -0.8844,-0.4531 -0.398,-0.1692 -0.7603,-0.3657 -0.8046,-0.436 -0.062,-0.098 0.1,-0.4277 0.6808,-1.3974 0.8545,-1.424 1.0416,-1.6394 1.4235,-1.6392 0.2648,0 1.8604,0.8876 2.2574,1.2554 0.3439,0.3182 0.2586,0.65 -0.4802,1.8764 -0.3656,0.6072 -0.7844,1.2336 -0.9301,1.3919 -0.1458,0.1583 -0.4245,0.5007 -0.6194,0.7607 -0.358,0.4772 -0.546,0.5793 -0.6357,0.3457 z m -8.5108001,-2.3692 -0.5452,-0.3468 0.5276,-0.614 c 0.6910001,-0.8049 1.4093001,-1.806 1.9832001,-2.7644 0.2963,-0.4952 0.5026,-0.7593 0.5717,-0.7327 0.061,0.02 0.4375,0.3102 0.8396,0.6389 0.8291,0.6775 0.818,0.5994 0.194,1.3653 -0.254,0.3116 -0.3567,0.5069 -0.3326,0.6327 0.033,0.1687 0.01,0.1788 -0.3083,0.1431 -0.2188,-0.026 -0.433,0.01 -0.5924,0.091 -0.2846,0.147 -0.8433,0.746 -1.3586,1.456 -0.1937,0.2666 -0.3706,0.4833 -0.3929001,0.4816 -0.021,0 -0.2866,-0.1593 -0.5867,-0.3502 z m -3.0227,-0.586 c -0.2884,-0.065 -0.5437,-0.1381 -0.567,-0.1616 -0.026,-0.025 0.2497,-0.3628 0.6071,-0.7547 1.3107,-1.4381 2.0051,-2.3135 2.7682,-3.4897 0.5472,-0.8434 0.7682,-1.2725 1.0080001,-1.9583 l 0.1825,-0.5228 0.3381,0.4717 c 0.3964,0.5536 0.6507,1.1879 0.7171,1.7885 0.044,0.404 0.026,0.4717 -0.3491,1.1102 -0.7752,1.3294 -2.3547001,3.3709 -2.7151001,3.5094 -0.3146,0.1209 -1.4714,0.1253 -1.9896,0.01 z m 8.0383001,-0.2755 c -1.0103,-0.4431 -1.4959,-0.7382 -1.5332,-0.9315 -0.011,-0.075 0.082,-0.2599 0.2117,-0.411 0.131,-0.1516 0.5082,-0.7009 0.8383,-1.2212 0.7196,-1.1335 0.8552,-1.2916 1.1663,-1.3599 0.28,-0.062 0.5561,0.068 1.5855,0.7464 0.7831,0.5158 0.8819,0.6838 0.6582,1.1187 -0.2953,0.5728 -1.4599,2.2993 -1.6029,2.376 -0.2385,0.1276 -0.3965,0.09 -1.324,-0.317 z m -9.8966001,-0.7585 c -0.8565,-0.8226 -1.277,-1.8116 -1.277,-3.0043 0,-1.8146 1.0984,-3.3155 2.863,-3.9119 1.0493,-0.3548 2.3479,-0.2083 3.3468,0.377 0.5493001,0.3221 0.5724001,0.3787 0.3591,0.8824 -0.3186,0.7523 -1.1726,2.124 -2.0663,3.3194 -0.8811,1.178 -2.401,2.8379 -2.5973,2.836 -0.061,0 -0.3433,-0.2251 -0.6283,-0.4987 z m 10.9322001,-16.8242 c -15.96329955,0.01 -31.7125,1.9157 -46.1987,5.6374 l -5.095,1.3093 -1.6181,5.0058 c -3.6273,11.2203 -5.5775,22.1409 -5.5169,32.5436 -0.3595,0.08 -0.7219,0.1571 -1.0798,0.2393 l -1.8095,0.4157 v 5.7169 c -0.32,0.076 -0.6425,0.1499 -0.9613,0.2275 -2.2172,0.4996 -4.4066,1.0273 -6.5671,1.583 l -1.7566,0.4511 v 40.5652 l 2.8511,-0.7837 c 4.2005,-1.1533 8.5292,-2.1992 12.9667,-3.1325 l 1.8488,-0.3884 v -5.4854 c 2.0625,-0.4265 4.1455,-0.8267 6.2453,-1.2044 9.2031,13.1642 23.7071994,23.7809 43.0643,31.7404 l 3.6327,1.4946 3.6336,-1.4946 c 19.3443,-7.9543 33.8419,-18.5624 43.0456,-31.7148 2.1052,0.3778 4.1949,0.7778 6.2631,1.2052 v 3.4828 2.091 l 1.8566,0.3834 c 4.4353,0.9159 8.7633,1.9433 12.9666,3.0786 l 2.8432,0.7679 v -40.5789 l -1.7517,-0.4541 c -2.0764,-0.5381 -4.1844,-1.0467 -6.314,-1.533 l -0.2481,-0.062 c -0.3226,-0.08 -0.6476,-0.157 -0.9711,-0.2355 v -5.6796 l -1.8086,-0.4169 c -0.3585,-0.083 -0.7218,-0.1592 -1.0816,-0.2402 0.065,-10.4004 -1.879,-21.3197 -5.5012,-32.5377 l -0.074,-0.2276 v 0 l -1.5406,-4.7733 -5.0903,-1.3133 c -14.4847,-3.7384 -30.2398,-5.6597 -46.2144,-5.6824 v 0 h -0.01 -0.01 -0.01 v 0 0 z m 0,3.1855 v 0 h 0.01 0.01 v 0 c 15.722,0.021 31.2231,1.9158 45.422,5.5806 l 3.3942,0.8757 1.076,3.3336 v 0 c 3.464,10.7273 5.3363,21.0684 5.359,30.8655 -1.0572,-0.223 -2.1186,-0.4404 -3.1856,-0.6503 -0.1015,-9.2123 -1.895,-18.9904 -5.2039,-29.2374 l -0.5385,-1.6663 -1.6966,-0.4384 c -13.9117,-3.591 -29.1625,-5.4577 -44.6311,-5.4798 h -0.01 -0.01 c -15.45749955,0.01 -30.7036,1.8617 -44.6176,5.4365 l -1.6978,0.4363 -0.5393,1.6693 c -3.3137,10.2502 -5.1121,20.0311 -5.2177,29.2462 -1.0668,0.209 -2.1285,0.4252 -3.1855,0.6474 0.026,-9.7999 1.904,-20.1431 5.3726,-30.8734 l 1.0788,-3.3375 3.3964,-0.8728 c 14.2004,-3.6483 29.69750045,-5.5263 45.4082,-5.5365 z m -30.267,8.8749 c -4.7987,10.0176 -7.7495,19.6569 -8.6937,28.8854 -3.3449,0.4747 -6.6541,1.0125 -9.9224,1.6084 0.1758,-8.6481 1.8993,-17.8827 5.0609,-27.6623 a 99.107866,51.464747 0 0 1 13.5552,-2.8315 z m 60.5568,0.042 a 99.107866,51.464747 0 0 1 13.555,2.8315 c 3.1605,9.7765 4.8835,19.0087 5.0598,27.6544 -3.2683,-0.5984 -6.5775,-1.1381 -9.9233,-1.6153 -0.9456,-9.2239 -3.8953,-18.8583 -8.6915,-28.8706 z m -27.5632,28.598 a 137.59614,66.096201 0 0 1 56.3153,6.4848 v 5.658 29.8023 l 2.745,-29.1354 a 137.59614,66.096201 0 0 1 6.5388,1.5878 v 35.4809 a 137.59614,66.096201 0 0 0 -13.0933,-3.109 v -0.055 l 3.8095,-4.7568 a 137.59614,66.096201 0 0 0 -3.8095,-0.8042 137.59614,66.096201 0 0 0 -58.9641,-5.7521 137.59614,66.096201 0 0 0 -51.4929,5.7325 137.59614,66.096201 0 0 0 -3.8092,0.7709 l 3.8092,4.7567 a 137.59614,66.096201 0 0 0 -13.093,3.1629 v -35.4495 a 137.59614,66.096201 0 0 1 6.5426,-1.5683 l 2.7412,29.0982 v -29.7553 -5.705 a 137.59614,66.096201 0 0 1 55.3021,-6.4368 137.59614,66.096201 0 0 1 6.4583,-0.01 z m -6.5496,5.4521 v 15.7754 l 11.0728,0.2608 c 2.0992,0.049 3.67,0.034 4.7126,-0.044 1.0426,-0.086 1.9184,-0.2523 2.6274,-0.5012 0.7091,-0.2553 1.2021,-0.6159 1.4802,-1.0817 0.2918,-0.4721 0.4382,-1.4137 0.4382,-2.8246 v -5.5051 c 0,-1.4886 -0.098,-2.4872 -0.2922,-2.9971 -0.1944,-0.5165 -0.6809,-0.9923 -1.4593,-1.427 -0.7786,-0.4349 -1.9187,-0.7628 -3.42,-0.9837 -1.4874,-0.2209 -4.3507,-0.3872 -8.5905,-0.4992 l -6.5692,-0.1727 z m -3.1187001,0.1264 -14.6390005,0.7541 v 15.7471 l 15.2236005,-0.7964 v -3.1492 l -6.4437,0.3363 v -3.4612 l 5.4845,-0.2854 v -2.9933 l -5.4845,0.2842 v -2.9843 l 5.8591,-0.3033 z m 26.7030001,0.5638 v 15.8384 l 8.7829,0.7375 v -15.7334 z m -44.870701,0.4983 -11.446399,1.6339 -2.0005,7.6539 -1.2095,-3.8436 c -0.3755,-1.2329 -0.7295,-2.2992 -1.0632,-3.2002 l -11.3631,1.6212 v 15.7823 l 7.6726,-1.0965 v -10.4098 l 3.2316,9.9479 5.4413,-0.7788 3.0649,-11.0894 v 10.6511 l 7.672299,-1.0966 z m 59.582101,1.172 -4.4534,15.0321 9.0728,1.4172 0.5199,-2.7481 3.1422,0.4894 0.4376,2.8981 8.9681,1.4006 -5.0146,-16.5366 z m -29.517,0.5659 c 0.9593,0.025 1.6132,0.09 1.9606,0.196 0.3479,0.1 0.5698,0.2516 0.6671,0.4552 0.098,0.2032 0.146,0.6618 0.146,1.375 v 6.116 c 0,1.0501 -0.1458,1.6924 -0.4375,1.9252 -0.2919,0.2264 -1.0712,0.3238 -2.3362,0.2931 z m 36.2177,3.9858 c 0.4439,2.6875 0.8869,4.9576 1.3307,6.8094 l -2.9961,-0.4659 c 0.2221,-1.3588 0.7774,-3.4733 1.6654,-6.3435 z m -42.7072,9.9724 -1.3945,0.038 v 5.8884 h -0.017 l -5.1018001,-5.7698 -1.6104,0.046 v 8.1384 l 1.3857,-0.034 v -5.9473 h 0.026 l 5.1361001,5.8159 1.5762,-0.042 v -8.1355 z m 6.5974,0.073 c -1.2322,-0.029 -2.19,0.136 -2.8725,0.5031 -0.677,0.367 -1.0152,0.9007 -1.0152,1.6005 0,0.5178 0.2197,0.9379 0.6593,1.2613 0.4454,0.3236 1.2376,0.6482 2.3772,0.9749 l 1.1457,0.3237 c 0.9312,0.2645 1.5449,0.4883 1.8397,0.6708 0.3008,0.1827 0.4511,0.4237 0.4511,0.7239 0,0.3934 -0.2518,0.701 -0.7549,0.9219 -0.5034,0.2166 -1.177,0.3132 -2.0216,0.2892 -1.0005,-0.029 -2.2592,-0.3035 -3.7748,-0.8237 v 1.1837 c 1.5215,0.3309 2.7627,0.5097 3.7228,0.5375 1.3829,0.038 2.4848,-0.1429 3.3063,-0.5493 0.8271,-0.4107 1.2408,-0.9771 1.2408,-1.6996 0,-0.9498 -0.8067,-1.6457 -2.4206,-2.0871 l -1.0418,-0.2775 -1.0935,-0.2973 c -0.7809,-0.2112 -1.3161,-0.4094 -1.6052,-0.5953 -0.2894,-0.1898 -0.4338,-0.4323 -0.4338,-0.7277 0,-0.7287 0.7721,-1.0737 2.3165,-1.0338 0.9779,0.025 2.0941,0.2251 3.3494,0.5983 v -1.0406 c -1.2495,-0.2792 -2.3739,-0.4316 -3.3749,-0.4569 z m -17.2837001,0.2354 -7.4930005,0.3914 v 8.104 l 7.8911005,-0.3607 v -0.9415 l -6.1886005,0.2884 v -2.8462 l 4.9087,-0.2392 v -0.9406 l -4.9087,0.2443 v -2.4607 l 5.7905005,-0.2981 z m 27.4022001,0.1815 c -1.2117,0.021 -2.1969,0.3341 -2.9559,0.9444 -0.8615,0.6929 -1.2917,1.6608 -1.2917,2.904 0,1.2474 0.4302,2.2656 1.2917,3.0551 0.8673,0.7868 2.0306,1.2216 3.4895,1.3044 1.459,0.083 2.6191,-0.2212 3.4809,-0.914 0.8671,-0.6976 1.3002,-1.6755 1.3002,-2.9315 0,-1.2519 -0.4331,-2.2713 -1.3002,-3.0581 -0.8618,-0.7895 -2.0219,-1.2214 -3.4809,-1.2956 -0.1822,-0.01 -0.3602,-0.012 -0.5336,-0.01 z m 7.4313,0.456 v 8.2021 l 1.6997,0.158 v -3.4121 l 1.5348,0.1452 3.4936,3.7357 2.0615,0.1911 -3.9161,-4.0918 c 0.9027,-0.2423 1.5469,-0.5338 1.9321,-0.8758 0.3854,-0.3459 0.5786,-0.8044 0.5786,-1.374 0,-0.829 -0.5349,-1.458 -1.6046,-1.8879 -0.5003,-0.2054 -1.3941,-0.37 -2.6825,-0.4934 z m -46.6243006,0.2188 c -0.5243,-0.012 -1.0315004,0 -1.5209994,0.048 -1.7284,0.1541 -3.1283,0.6595 -4.1997,1.5162 -1.0717,0.8577 -1.6075,1.9001 -1.6075,3.1276 0,1.2113 0.539,2.1403 1.6163,2.7844 1.0774,0.639 2.4976,0.8738 4.2605,0.7072 1.0079994,-0.096 2.0819994,-0.3402 3.2227994,-0.7336 v -0.9779 c -1.0775,0.3908 -2.0128,0.6236 -2.8082004,0.6983 -1.313499,0.1235 -2.388199,-0.069 -3.223599,-0.5767 -0.8353,-0.5086 -1.2535,-1.2243 -1.2535,-2.1469 0,-0.9144 0.3693,-1.7004 1.1063,-2.3577 0.7433,-0.6572 1.688,-1.0368 2.8345,-1.1397 0.9910994,-0.089 2.0575994,0 3.1980994,0.262 v -1.0925 c -0.5587,-0.067 -1.1008,-0.1071 -1.625,-0.1188 z m 39.3796006,0.2313 c 0.1123,0 0.2278,0 0.3471,0 0.9534,0.049 1.6889,0.3662 2.2058,0.9503 0.517,0.5808 0.7748,1.3827 0.7748,2.4049 0,1.0263 -0.2578,1.804 -0.7748,2.3332 -0.5169,0.5247 -1.2524,0.7596 -2.2058,0.7062 -0.9535,-0.053 -1.6886,-0.3708 -2.2057,-0.9513 -0.5111,-0.5842 -0.7671,-1.387 -0.7671,-2.4089 0,-1.0177 0.2558,-1.7886 0.7671,-2.3135 0.4523,-0.463 1.072,-0.7055 1.8586,-0.7258 z m 18.1655,0.6139 v 8.2443 l 7.9274,1.0651 v -0.9386 l -6.216,-0.8453 v -2.8836 l 4.9313,0.6925 v -0.9416 l -4.9313,-0.6993 v -2.493 l 5.8168,0.8483 v -0.9395 z m -67.0319,0.043 -1.3966,0.1932 v 5.8522 h -0.017 l -5.1109,-5.1735 -1.6143,0.2225 v 8.1609 l 1.3889,-0.202 v -5.9532 h 0.026 l 5.1461,5.202 1.5788,-0.2296 v -8.0727 z m 57.8108,0 1.0436,0.1 c 1.0809,0.1033 1.8228,0.2617 2.2252,0.4747 0.4027,0.213 0.6043,0.5547 0.6043,1.0269 0,0.5062 -0.2675,0.8828 -0.8024,1.1299 -0.5347,0.2474 -1.259,0.3279 -2.1733,0.2414 l -0.8974,-0.085 v -2.8883 z m 19.1346,1.4154 v 8.1382 l 2.897,0.5454 c 1.2261,0.2308 2.2071,0.3153 2.9415,0.254 0.7401,-0.064 1.3613,-0.2851 1.8644,-0.662 0.8039,-0.5969 1.2063,-1.5009 1.2063,-2.7119 0,-2.6174 -1.8507,-4.2663 -5.5519,-4.9469 z m -87.6395,0.034 -1.4858,0.2855 v 4.8145 c 0,0.8667 -0.1939,1.5267 -0.5798,1.9803 -0.3858,0.449 -1.0171,0.7548 -1.8929,0.9179 -0.8297,0.1545 -1.4311,0.079 -1.8055,-0.2276 -0.3687,-0.3116 -0.5532,-0.8891 -0.5532,-1.732 v -4.8272 l -1.7025,0.3253 v 4.8038 c 0,1.1306 0.3308,1.9069 0.9933,2.3284 0.6684,0.4209 1.6971,0.5027 3.0856,0.2452 1.6017,-0.2973 2.7512,-0.9733 3.4483,-2.0282 0.3283,-0.4972 0.4925,-1.2455 0.4925,-2.2461 z m 89.348,1.2211 1.3191,0.2431 c 1.4574,0.2687 2.4981,0.7068 3.1228,1.3141 0.6245,0.6036 0.9366,1.4741 0.9366,2.6118 0,1.1206 -0.3463,1.8535 -1.0408,2.1988 -0.6881,0.3461 -1.8478,0.3663 -3.4785,0.06 l -0.8592,-0.1607 v -6.267 z m -73.8493,12.3583 c 6.4451994,9.1349 15.9225999,17.6489 28.6971,25.4879 -16.1304996,-6.6327 -27.9994,-14.8799 -36.0047,-24.5916 2.419,-0.3301 4.8547,-0.6306 7.3076,-0.8963 z m 57.4147,0.034 c 2.4527,0.2658 4.8906,0.5645 7.3106,0.8945 -8.0054,9.7167 -19.8777,17.968 -36.0145,24.6033 12.7792,-7.8418 22.2586,-16.3592 28.7039,-25.4978 z m -68.3735,1.3898 c 8.4173,10.856 21.1743994,19.9096 38.4445,27.0111 l 1.2114,0.4982 1.2113,-0.4982 c 17.2577,-7.0964 30.0094,-16.142 38.4269,-26.9876 1.1913,0.1793 2.3778,0.367 3.5592,0.562 -8.8159,11.9973 -22.4437,21.8332 -40.7749,29.3708 l -2.4225,0.9964 -2.4213,-0.9964 c -18.3438006,-7.5426 -31.978,-17.3862 -40.7932,-29.3943 1.181,-0.1952 2.3674,-0.382 3.5581,-0.562 z"
       transform="matrix(3.1664882,0,0,3.1664882,162.54628,5254.0538)" /><rect
       style="opacity:0;fill:#0027ff;stroke-width:0.634"
       id="rect2"
       width="415.62085"
       height="412.4303"
       x="-329.41806"
       y="-2699.1716" /></g></svg>
